<svg width="512" height="512" viewBox="0 0 512 512" fill="none" xmlns="http://www.w3.org/2000/svg">
  <defs>
    <clipPath id="clip-favicon-rounded">
      <rect width="512" height="512" rx="112" ry="112" />
    </clipPath>
  </defs>
  <g clip-path="url(#clip-favicon-rounded)">
    <rect x="-24" y="-24" width="560" height="560" fill="#FFFDF3" />
    <path
      d="M257.622 439.236C293.028 439.236 324.842 431.026 353.064 414.606C380.773 398.186 402.838 374.839 419.258 344.564C435.165 313.776 443.118 277.857 443.118 236.807C443.118 194.217 434.908 157.785 418.488 127.511C402.068 97.2362 379.747 73.8889 351.525 57.4687C323.303 41.0486 291.489 32.8386 256.083 32.8386C220.164 32.8386 188.35 41.0486 160.641 57.4687C132.419 73.8889 110.355 97.2362 94.4475 127.511C78.0274 157.785 69.8174 194.217 69.8174 236.807C69.8174 277.857 78.0274 313.776 94.4475 344.564C110.868 374.839 133.189 398.186 161.411 414.606C189.633 431.026 221.703 439.236 257.622 439.236ZM257.622 408.449C230.94 408.449 206.31 402.034 183.732 389.206C160.641 376.378 141.912 357.136 127.544 331.479C113.177 305.823 105.993 274.009 105.993 236.037C105.993 198.066 113.177 166.252 127.544 140.596C141.399 114.939 159.871 95.9534 182.962 83.6383C205.54 70.8101 229.913 64.396 256.083 64.396C282.253 64.396 306.883 70.8101 329.973 83.6383C353.064 96.4665 371.793 115.709 386.161 141.365C400.016 166.509 406.943 198.066 406.943 236.037C406.943 274.009 400.016 305.823 386.161 331.479C371.793 357.136 353.321 376.378 330.743 389.206C308.166 402.034 283.792 408.449 257.622 408.449Z"
      fill="#181817"
    />
    <path
      d="M142.537 252.491C142.537 252.491 150.969 166.232 196.504 166.234C242.039 166.236 274.082 335.298 317.93 335.298C361.778 335.298 378.643 245.591 378.643 245.591"
      stroke="#148DFF"
      stroke-width="24.3061"
      stroke-linecap="round"
    />
    <path
      d="M118.106 428C118.106 428 194.707 468.51 260.997 468.51C327.286 468.51 393.575 428 393.575 428"
      stroke="#148DFF"
      stroke-width="24.3102"
      stroke-linecap="round"
    />
  </g>
</svg>
