<svg width="2000" height="550" viewBox="0 0 2000 550" fill="none" xmlns="http://www.w3.org/2000/svg">
<rect width="2000" height="550" fill="white"/>
<path d="M180.913 402.56C154.313 402.56 131.386 396.86 112.133 385.46C92.8796 373.807 78.0596 357.72 67.673 337.2C57.2863 316.427 52.093 292.613 52.093 265.76C52.093 238.4 57.2863 214.46 67.673 193.94C78.0596 173.167 92.8796 156.953 112.133 145.3C131.386 133.393 154.313 127.44 180.913 127.44C213.846 127.44 240.7 135.673 261.473 152.14C282.5 168.607 295.546 191.787 300.613 221.68H238.293C235.253 208.253 228.793 197.867 218.913 190.52C209.033 182.92 196.24 179.12 180.533 179.12C165.586 179.12 152.793 182.667 142.153 189.76C131.766 196.853 123.786 206.86 118.213 219.78C112.893 232.447 110.233 247.773 110.233 265.76C110.233 283.24 112.893 298.44 118.213 311.36C123.786 324.027 131.766 333.907 142.153 341C152.793 347.84 165.586 351.26 180.533 351.26C196.24 351.26 208.906 347.967 218.533 341.38C228.413 334.54 235 324.787 238.293 312.12H300.613C295.546 340.24 282.5 362.407 261.473 378.62C240.7 394.58 213.846 402.56 180.913 402.56ZM400.986 402.56C383.506 402.56 367.8 398.507 353.866 390.4C340.186 382.293 329.293 370.767 321.186 355.82C313.333 340.62 309.406 322.887 309.406 302.62C309.406 281.593 313.46 263.607 321.566 248.66C329.673 233.713 340.693 222.187 354.626 214.08C368.56 205.973 384.266 201.92 401.746 201.92C419.48 201.92 435.186 205.973 448.866 214.08C462.8 222.187 473.693 233.713 481.546 248.66C489.653 263.607 493.706 281.593 493.706 302.62C493.706 322.887 489.653 340.62 481.546 355.82C473.44 370.767 462.42 382.293 448.486 390.4C434.553 398.507 418.72 402.56 400.986 402.56ZM400.986 387.36C414.16 387.36 426.32 384.193 437.466 377.86C448.866 371.527 458.113 362.027 465.206 349.36C472.3 336.693 475.846 320.987 475.846 302.24C475.846 283.493 472.3 267.787 465.206 255.12C458.366 242.453 449.246 233.08 437.846 227C426.7 220.667 414.666 217.5 401.746 217.5C388.826 217.5 376.666 220.667 365.266 227C353.866 233.333 344.62 242.833 337.526 255.5C330.686 267.913 327.266 283.493 327.266 302.24C327.266 320.987 330.686 336.693 337.526 349.36C344.62 362.027 353.74 371.527 364.886 377.86C376.033 384.193 388.066 387.36 400.986 387.36ZM595.187 402.56C578.214 402.56 562.761 398.253 548.827 389.64C535.147 381.027 524.254 369.247 516.147 354.3C508.294 339.1 504.367 321.873 504.367 302.62C504.367 283.113 508.421 265.887 516.527 250.94C524.634 235.74 535.654 223.833 549.587 215.22C563.774 206.353 579.481 201.92 596.707 201.92C609.881 201.92 621.407 204.327 631.287 209.14C641.167 213.7 649.274 220.413 655.607 229.28V124.4H712.607V398H662.067L655.607 373.3C651.807 378.62 647.121 383.56 641.547 388.12C636.227 392.427 629.767 395.847 622.167 398.38C614.567 401.167 605.574 402.56 595.187 402.56ZM610.007 352.78C619.381 352.78 627.614 350.627 634.707 346.32C642.054 342.013 647.627 336.06 651.427 328.46C655.481 320.86 657.507 312.12 657.507 302.24C657.507 292.36 655.481 283.62 651.427 276.02C647.627 268.42 642.054 262.467 634.707 258.16C627.614 253.853 619.381 251.7 610.007 251.7C600.887 251.7 592.654 253.853 585.307 258.16C578.214 262.467 572.641 268.42 568.587 276.02C564.534 283.62 562.507 292.233 562.507 301.86C562.507 311.74 564.534 320.607 568.587 328.46C572.641 336.06 578.214 342.013 585.307 346.32C592.654 350.627 600.887 352.78 610.007 352.78ZM829.68 402.56C809.92 402.56 792.567 398.507 777.62 390.4C762.673 382.04 750.893 370.513 742.28 355.82C733.92 340.873 729.74 323.773 729.74 304.52C729.74 284.76 733.92 267.153 742.28 251.7C750.64 236.247 762.293 224.087 777.24 215.22C792.187 206.353 809.54 201.92 829.3 201.92C848.553 201.92 865.4 206.1 879.84 214.46C894.28 222.82 905.553 234.22 913.66 248.66C922.02 262.847 926.2 279.313 926.2 298.06C926.2 300.593 926.073 303.507 925.82 306.8C925.82 309.84 925.567 313.007 925.06 316.3H770.4V283.24H868.06C867.553 272.6 863.627 264.113 856.28 257.78C849.187 251.193 840.32 247.9 829.68 247.9C821.573 247.9 814.227 249.8 807.64 253.6C801.053 257.4 795.733 263.1 791.68 270.7C787.88 278.3 785.98 287.927 785.98 299.58V310.98C785.98 319.847 787.627 327.7 790.92 334.54C794.467 341.38 799.407 346.7 805.74 350.5C812.327 354.3 820.053 356.2 828.92 356.2C837.28 356.2 844.12 354.553 849.44 351.26C855.013 347.713 859.32 343.28 862.36 337.96H920.5C916.953 350.12 910.873 361.14 902.26 371.02C893.647 380.647 883.133 388.373 870.72 394.2C858.307 399.773 844.627 402.56 829.68 402.56ZM1003.84 398V177.98H926.696V132H1137.98V177.98H1060.84V398H1003.84ZM1129.41 398V206.48H1179.95L1185.27 241.44C1190.33 233.333 1196.29 226.367 1203.13 220.54C1209.97 214.713 1217.82 210.153 1226.69 206.86C1235.81 203.567 1245.56 201.92 1255.95 201.92V262.34H1236.95C1229.35 262.34 1222.38 263.227 1216.05 265C1209.97 266.52 1204.65 269.18 1200.09 272.98C1195.78 276.78 1192.36 281.973 1189.83 288.56C1187.55 294.893 1186.41 302.873 1186.41 312.5V398H1129.41ZM1352.85 402.56C1334.36 402.56 1317.77 398.253 1303.07 389.64C1288.38 381.027 1276.73 369.247 1268.11 354.3C1259.5 339.1 1255.19 321.873 1255.19 302.62C1255.19 282.86 1259.5 265.507 1268.11 250.56C1276.73 235.36 1288.38 223.453 1303.07 214.84C1318.02 206.227 1334.61 201.92 1352.85 201.92C1371.6 201.92 1388.32 206.227 1403.01 214.84C1417.71 223.453 1429.36 235.36 1437.97 250.56C1446.59 265.507 1450.89 282.733 1450.89 302.24C1450.89 321.747 1446.59 339.1 1437.97 354.3C1429.36 369.247 1417.71 381.027 1403.01 389.64C1388.32 398.253 1371.6 402.56 1352.85 402.56ZM1352.85 353.16C1360.45 353.16 1367.17 351.26 1372.99 347.46C1379.07 343.66 1383.89 337.96 1387.43 330.36C1390.98 322.76 1392.75 313.387 1392.75 302.24C1392.75 291.093 1390.98 281.72 1387.43 274.12C1383.89 266.52 1379.2 260.82 1373.37 257.02C1367.55 253.22 1360.83 251.32 1353.23 251.32C1345.63 251.32 1338.79 253.22 1332.71 257.02C1326.89 260.82 1322.2 266.52 1318.65 274.12C1315.11 281.72 1313.33 291.093 1313.33 302.24C1313.33 313.387 1315.11 322.76 1318.65 330.36C1322.2 337.96 1326.89 343.66 1332.71 347.46C1338.79 351.26 1345.51 353.16 1352.85 353.16ZM1468.08 398V206.48H1517.86L1522.42 237.26C1528.25 226.62 1536.48 218.133 1547.12 211.8C1557.76 205.213 1570.68 201.92 1585.88 201.92C1601.84 201.92 1615.27 205.34 1626.16 212.18C1637.06 219.02 1645.29 228.9 1650.86 241.82C1656.69 254.487 1659.6 270.067 1659.6 288.56V398H1602.98V293.88C1602.98 279.947 1599.94 269.18 1593.86 261.58C1588.04 253.727 1578.66 249.8 1565.74 249.8C1558.14 249.8 1551.18 251.7 1544.84 255.5C1538.76 259.047 1533.95 264.24 1530.4 271.08C1526.86 277.92 1525.08 286.153 1525.08 295.78V398H1468.08ZM1681.23 398V206.48H1738.23V398H1681.23ZM1709.73 184.44C1699.59 184.44 1691.36 181.527 1685.03 175.7C1678.69 169.873 1675.53 162.527 1675.53 153.66C1675.53 144.54 1678.69 137.067 1685.03 131.24C1691.36 125.413 1699.59 122.5 1709.73 122.5C1720.11 122.5 1728.47 125.413 1734.81 131.24C1741.39 137.067 1744.69 144.54 1744.69 153.66C1744.69 162.527 1741.39 169.873 1734.81 175.7C1728.47 181.527 1720.11 184.44 1709.73 184.44ZM1889.54 398L1810.5 293.12L1880.8 206.48H1948.06L1853.44 317.44V271.84L1960.22 398H1889.54ZM1761.86 398V124.4H1818.86V398H1761.86Z" fill="#181817"/>
<path d="M350 303.776C350 303.776 353.857 264.999 374.686 265C395.514 265.001 410.171 341 430.229 341C450.286 341 458 300.673 458 300.673" stroke="#148DFF" stroke-width="12" stroke-linecap="round"/>
<path d="M334 397C334 397 371.818 417 404.545 417C437.273 417 470 397 470 397" stroke="#148DFF" stroke-width="12" stroke-linecap="round"/>
</svg>
